<svg xmlns="http://www.w3.org/2000/svg" viewBox="0 0 322.3 163.8"><defs><style>.cls-1{fill:#fff;stroke:#385560;stroke-miterlimit:10;stroke-width:0.3px;}.cls-2{fill:#1d1d1b;}.cls-3{fill:#0e354f;}.cls-4{fill:#3cb9be;}.cls-5{fill:#74b498;}.cls-6{fill:#9a2a29;}.cls-7{fill:#00aaac;}</style></defs><g id="Capa_2" data-name="Capa 2"><g id="Capa_1-2" data-name="Capa 1"><rect class="cls-1" x="0.15" y="0.15" width="322" height="163.5"/><path class="cls-2" d="M22.38,117.25a3.58,3.58,0,0,1-1.6.35,3.5,3.5,0,0,1-1.7-.4,3.69,3.69,0,0,1-1.25-1.08,5.26,5.26,0,0,1-.79-1.63,7.27,7.27,0,0,1-.27-2,7.37,7.37,0,0,1,.27-2,5,5,0,0,1,.8-1.63,3.63,3.63,0,0,1,1.26-1.08,3.55,3.55,0,0,1,1.68-.38,3.91,3.91,0,0,1,1.54.29,2.83,2.83,0,0,1,1.2.91l-.74.64a2.59,2.59,0,0,0-.88-.72,2.49,2.49,0,0,0-1.07-.24,2.37,2.37,0,0,0-1.26.33,2.71,2.71,0,0,0-.89.92,4.49,4.49,0,0,0-.53,1.36,7.88,7.88,0,0,0-.17,1.65,7.17,7.17,0,0,0,.18,1.64,4.54,4.54,0,0,0,.54,1.35,2.62,2.62,0,0,0,.89.92,2.24,2.24,0,0,0,1.26.34,2.21,2.21,0,0,0,1.14-.3,2.61,2.61,0,0,0,.84-.78l.72.62A3,3,0,0,1,22.38,117.25Z"/><path class="cls-2" d="M27,110.68a1.71,1.71,0,0,1,1.09-.4h.2l0,.95-.12,0H28a1.21,1.21,0,0,0-.74.24,2.09,2.09,0,0,0-.54.6,3.13,3.13,0,0,0-.32.86,4.38,4.38,0,0,0-.1,1v3.5H25.19v-5.14c0-.15,0-.31,0-.48s0-.33,0-.5,0-.31,0-.44,0-.24,0-.31h1.06c0,.17,0,.39.05.66s0,.54,0,.84h0A2.47,2.47,0,0,1,27,110.68Z"/><path class="cls-2" d="M30.91,108.38a.6.6,0,0,1-.21.48.75.75,0,0,1-.51.19.71.71,0,0,1-.52-.19.6.6,0,0,1-.21-.48.62.62,0,0,1,.21-.47.71.71,0,0,1,.52-.19.74.74,0,0,1,.52.19A.65.65,0,0,1,30.91,108.38Zm-1.27,9v-6.87h1.09v6.87Z"/><path class="cls-2" d="M35.48,117.49a3.19,3.19,0,0,1-.54.05,1.38,1.38,0,0,1-1.22-.5,2.28,2.28,0,0,1-.35-1.33v-4.47H32.3v-.75h1.05v-1.9h1.08v1.9h1.45v.75H34.43v4.31a1.51,1.51,0,0,0,.21.9.75.75,0,0,0,.64.29,1.22,1.22,0,0,0,.32,0l.28-.07,0,.73A2.77,2.77,0,0,1,35.48,117.49Z"/><path class="cls-2" d="M38.66,108.38a.6.6,0,0,1-.21.48.72.72,0,0,1-.51.19.73.73,0,0,1-.52-.19.6.6,0,0,1-.21-.48.62.62,0,0,1,.21-.47.81.81,0,0,1,1,0A.61.61,0,0,1,38.66,108.38Zm-1.26,9v-6.87h1.08v6.87Z"/><path class="cls-2" d="M43.35,117.58a2.64,2.64,0,0,1-1.22-.27,2.53,2.53,0,0,1-.88-.74,3.4,3.4,0,0,1-.54-1.15,5.8,5.8,0,0,1-.18-1.49,5.69,5.69,0,0,1,.18-1.49,3.2,3.2,0,0,1,.55-1.16,2.48,2.48,0,0,1,.89-.75,2.61,2.61,0,0,1,1.22-.26,2.66,2.66,0,0,1,1.07.19,2.24,2.24,0,0,1,.71.46l-.58.66a1.51,1.51,0,0,0-.49-.37,1.68,1.68,0,0,0-.7-.14,1.28,1.28,0,0,0-.76.22,1.62,1.62,0,0,0-.54.59,3.29,3.29,0,0,0-.32.9,5.83,5.83,0,0,0-.11,1.15,5.6,5.6,0,0,0,.11,1.12,2.93,2.93,0,0,0,.32.88,1.65,1.65,0,0,0,.55.59,1.51,1.51,0,0,0,.8.2,1.6,1.6,0,0,0,.72-.14,1.48,1.48,0,0,0,.52-.41l.5.71A2.39,2.39,0,0,1,43.35,117.58Z"/><path class="cls-2" d="M50,117.36q0-.1,0-.27c0-.12,0-.23,0-.36s0-.24,0-.36v-.3h0a1.87,1.87,0,0,1-2,1.47,2.13,2.13,0,0,1-.7-.11,1.56,1.56,0,0,1-.62-.36,1.93,1.93,0,0,1-.47-.63,2.44,2.44,0,0,1,.14-2.13,2.37,2.37,0,0,1,.79-.72,3.33,3.33,0,0,1,1.05-.35,6.94,6.94,0,0,1,1.08-.09h.64v-.36a1.85,1.85,0,0,0-.4-1.32,1.42,1.42,0,0,0-1.07-.41,1.94,1.94,0,0,0-.86.2,2.35,2.35,0,0,0-.67.53l-.58-.57a2.41,2.41,0,0,1,1-.7,3.13,3.13,0,0,1,1.22-.25,2.16,2.16,0,0,1,1.83.7,3.32,3.32,0,0,1,.55,2.07v3.2c0,.14,0,.28,0,.42s0,.28,0,.4,0,.23,0,.3Zm-.13-3.49h-.66a5.16,5.16,0,0,0-.79.06,2,2,0,0,0-.71.24,1.35,1.35,0,0,0-.5.48,1.42,1.42,0,0,0-.2.79,1.31,1.31,0,0,0,.38,1,1.28,1.28,0,0,0,.83.31,1.26,1.26,0,0,0,.78-.23,1.64,1.64,0,0,0,.51-.6,2.55,2.55,0,0,0,.27-.79,4,4,0,0,0,.09-.83Z"/><path class="cls-2" d="M53.23,117.36V106.89h1.09v10.47Z"/><path class="cls-2" d="M64.68,117.36,64,114.91H60.38l-.75,2.45H58.46l3-9.81H63l2.89,9.81Zm-2.46-8.94h-.06l-1.62,5.71h3.27Z"/><path class="cls-2" d="M69.6,117.58a2.64,2.64,0,0,1-1.22-.27,2.56,2.56,0,0,1-.89-.74,3.58,3.58,0,0,1-.53-1.15,5.8,5.8,0,0,1-.18-1.49,5.69,5.69,0,0,1,.18-1.49,3.36,3.36,0,0,1,.54-1.16,2.57,2.57,0,0,1,.89-.75,2.67,2.67,0,0,1,1.22-.26,2.71,2.71,0,0,1,1.08.19,2.36,2.36,0,0,1,.71.46l-.58.66a1.45,1.45,0,0,0-.5-.37,1.6,1.6,0,0,0-.69-.14,1.32,1.32,0,0,0-.77.22,1.69,1.69,0,0,0-.53.59,3,3,0,0,0-.32.9,5.16,5.16,0,0,0-.11,1.15,5,5,0,0,0,.11,1.12,2.69,2.69,0,0,0,.32.88,1.57,1.57,0,0,0,.55.59,1.49,1.49,0,0,0,.8.2,1.62,1.62,0,0,0,.72-.14,1.58,1.58,0,0,0,.52-.41l.49.71A2.35,2.35,0,0,1,69.6,117.58Z"/><path class="cls-2" d="M75,117.49a3.31,3.31,0,0,1-.55.05,1.36,1.36,0,0,1-1.21-.5,2.21,2.21,0,0,1-.36-1.33v-4.47H71.84v-.75H72.9v-1.9H74v1.9h1.45v.75H74v4.31a1.51,1.51,0,0,0,.21.9.77.77,0,0,0,.65.29,1.15,1.15,0,0,0,.31,0,1.63,1.63,0,0,0,.28-.07l0,.73A2.94,2.94,0,0,1,75,117.49Z"/><path class="cls-2" d="M78.21,108.38a.6.6,0,0,1-.21.48.76.76,0,0,1-.52.19.73.73,0,0,1-.52-.19.63.63,0,0,1-.2-.48.65.65,0,0,1,.2-.47.73.73,0,0,1,.52-.19.71.71,0,0,1,.52.19A.62.62,0,0,1,78.21,108.38Zm-1.27,9v-6.87H78v6.87Z"/><path class="cls-2" d="M85.78,113.94a4.91,4.91,0,0,1-.2,1.48,3.52,3.52,0,0,1-.56,1.15,2.33,2.33,0,0,1-.9.75,2.85,2.85,0,0,1-2.38,0,2.48,2.48,0,0,1-.9-.75,3.35,3.35,0,0,1-.57-1.15,5.25,5.25,0,0,1-.2-1.48,5.86,5.86,0,0,1,.19-1.5,3.39,3.39,0,0,1,.56-1.16,2.52,2.52,0,0,1,.9-.75,2.63,2.63,0,0,1,1.21-.26,2.57,2.57,0,0,1,1.19.26,2.52,2.52,0,0,1,.9.75,3.58,3.58,0,0,1,.56,1.16A5.09,5.09,0,0,1,85.78,113.94Zm-1.12,0a5.88,5.88,0,0,0-.11-1.14,3.07,3.07,0,0,0-.32-.9,1.74,1.74,0,0,0-.54-.6,1.26,1.26,0,0,0-.76-.22,1.35,1.35,0,0,0-.78.22,1.62,1.62,0,0,0-.53.6,3.07,3.07,0,0,0-.32.9,5.9,5.9,0,0,0-.1,1.14,5.62,5.62,0,0,0,.1,1.12,3.29,3.29,0,0,0,.32.9,1.48,1.48,0,0,0,.53.6,1.42,1.42,0,0,0,.78.21,1.39,1.39,0,0,0,.77-.21,1.58,1.58,0,0,0,.54-.6,3.29,3.29,0,0,0,.31-.9A5.6,5.6,0,0,0,84.66,113.92Z"/><path class="cls-2" d="M92,117.36v-4.43c0-.21,0-.43,0-.65a1.7,1.7,0,0,0-.19-.59,1.07,1.07,0,0,0-1.06-.62,1.37,1.37,0,0,0-.73.19,1.57,1.57,0,0,0-.55.51,2.57,2.57,0,0,0-.34.75,2.84,2.84,0,0,0-.13.88v4H87.89v-5.14c0-.15,0-.31,0-.48s0-.33,0-.5,0-.31,0-.44a2.28,2.28,0,0,0,0-.31h1a5.21,5.21,0,0,1,.05.64c0,.25,0,.48,0,.7h0a2.49,2.49,0,0,1,.76-1.13,2,2,0,0,1,1.32-.43,2.14,2.14,0,0,1,1.06.23,1.68,1.68,0,0,1,.62.62A2.36,2.36,0,0,1,93,112a6.09,6.09,0,0,1,.08,1v4.43Z"/><path class="cls-2" d="M104.42,110.21a3,3,0,0,1-.23,1.2,2.59,2.59,0,0,1-.64.87,2.68,2.68,0,0,1-.92.52,3.22,3.22,0,0,1-1.08.18H99.84v4.38H98.7v-9.81h2.75a4.17,4.17,0,0,1,1,.13,2.53,2.53,0,0,1,1,.43,2.37,2.37,0,0,1,.7.83A2.68,2.68,0,0,1,104.42,110.21Zm-1.13,0a2.17,2.17,0,0,0-.15-.84,1.51,1.51,0,0,0-.42-.57,1.58,1.58,0,0,0-.6-.32,2.43,2.43,0,0,0-.73-.11H99.84v3.77h1.56a2,2,0,0,0,1.33-.47A1.83,1.83,0,0,0,103.29,110.22Z"/><path class="cls-2" d="M106.22,117.36V106.89h1.09v10.47Z"/><path class="cls-2" d="M113.28,117.36a1.87,1.87,0,0,1,0-.27c0-.12,0-.23,0-.36s0-.24,0-.36v-.3h0a1.85,1.85,0,0,1-2,1.47,2.07,2.07,0,0,1-.69-.11,1.66,1.66,0,0,1-.63-.36,1.78,1.78,0,0,1-.46-.63,2.48,2.48,0,0,1,.13-2.13,2.37,2.37,0,0,1,.79-.72,3.33,3.33,0,0,1,1-.35,6.94,6.94,0,0,1,1.08-.09h.64v-.36a1.89,1.89,0,0,0-.39-1.32,1.44,1.44,0,0,0-1.07-.41,1.91,1.91,0,0,0-.86.2,2.39,2.39,0,0,0-.68.53l-.58-.57a2.55,2.55,0,0,1,1-.7,3.17,3.17,0,0,1,1.22-.25,2.2,2.2,0,0,1,1.84.7,3.38,3.38,0,0,1,.54,2.07v2.85c0,.1,0,.21,0,.35s0,.28,0,.42,0,.28,0,.4,0,.23,0,.3Zm-.13-3.49h-.66a5.25,5.25,0,0,0-.79.06,1.93,1.93,0,0,0-.7.24,1.38,1.38,0,0,0-.51.48,1.42,1.42,0,0,0-.19.79,1.28,1.28,0,0,0,.38,1,1.33,1.33,0,0,0,1.6.08,1.77,1.77,0,0,0,.52-.6,3.2,3.2,0,0,0,.27-.79,4.76,4.76,0,0,0,.08-.83Z"/><path class="cls-2" d="M120.71,117.36v-4.43c0-.21,0-.43,0-.65a1.7,1.7,0,0,0-.19-.59,1.2,1.2,0,0,0-.39-.45,1.23,1.23,0,0,0-.67-.17,1.35,1.35,0,0,0-.73.19,1.57,1.57,0,0,0-.55.51,2.88,2.88,0,0,0-.35.75,3.17,3.17,0,0,0-.12.88v4h-1.09v-5.14c0-.15,0-.31,0-.48s0-.33,0-.5,0-.31,0-.44a2.28,2.28,0,0,0,0-.31h1c0,.17,0,.39.05.64s0,.48,0,.7h0a2.49,2.49,0,0,1,.76-1.13,2,2,0,0,1,1.32-.43,2.16,2.16,0,0,1,1.06.23,1.68,1.68,0,0,1,.62.62,2.36,2.36,0,0,1,.29.86,6.09,6.09,0,0,1,.08,1v4.43Z"/><path class="cls-2" d="M128.46,117.36v-4.43a4.82,4.82,0,0,0,0-.65,1.93,1.93,0,0,0-.18-.59,1.33,1.33,0,0,0-.4-.45,1.21,1.21,0,0,0-.67-.17,1.37,1.37,0,0,0-.73.19,1.54,1.54,0,0,0-.54.51,2.59,2.59,0,0,0-.35.75,3.17,3.17,0,0,0-.13.88v4h-1.08v-5.14c0-.15,0-.31,0-.48s0-.33,0-.5,0-.31,0-.44a2.28,2.28,0,0,0,0-.31h1.06c0,.17,0,.39,0,.64s0,.48,0,.7h0a2.49,2.49,0,0,1,.76-1.13,2,2,0,0,1,1.32-.43,2.21,2.21,0,0,1,1.07.23,1.75,1.75,0,0,1,.62.62,2.36,2.36,0,0,1,.28.86,6.09,6.09,0,0,1,.08,1v4.43Z"/><path class="cls-2" d="M133.29,108.38a.6.6,0,0,1-.21.48.72.72,0,0,1-.51.19.73.73,0,0,1-.52-.19.6.6,0,0,1-.21-.48.62.62,0,0,1,.21-.47.81.81,0,0,1,1,0A.61.61,0,0,1,133.29,108.38Zm-1.27,9v-6.87h1.09v6.87Z"/><path class="cls-2" d="M139.84,117.36v-4.43a4.82,4.82,0,0,0,0-.65,1.69,1.69,0,0,0-.18-.59,1.2,1.2,0,0,0-.39-.45,1.26,1.26,0,0,0-.67-.17,1.41,1.41,0,0,0-.74.19,1.63,1.63,0,0,0-.54.51,2.59,2.59,0,0,0-.35.75,3.17,3.17,0,0,0-.12.88v4h-1.09v-5.14c0-.15,0-.31,0-.48s0-.33,0-.5,0-.31,0-.44,0-.24,0-.31h1.06c0,.17,0,.39,0,.64s0,.48,0,.7h0a2.42,2.42,0,0,1,.76-1.13,2,2,0,0,1,1.32-.43,2.16,2.16,0,0,1,1.06.23,1.68,1.68,0,0,1,.62.62,2.57,2.57,0,0,1,.29.86,6.08,6.08,0,0,1,.07,1v4.43Z"/><path class="cls-2" d="M148.55,117.27a5.77,5.77,0,0,1-.14,1.35,2.8,2.8,0,0,1-.47,1.08,2.22,2.22,0,0,1-.89.73,3.36,3.36,0,0,1-1.4.26,3.81,3.81,0,0,1-1.51-.31,3,3,0,0,1-1.13-.84l.71-.64a2.42,2.42,0,0,0,.83.69,2.39,2.39,0,0,0,1.13.27,1.82,1.82,0,0,0,.9-.2,1.45,1.45,0,0,0,.56-.54,2.64,2.64,0,0,0,.28-.82,6.53,6.53,0,0,0,.08-1v-1.14h0a2.51,2.51,0,0,1-.66,1,1.89,1.89,0,0,1-1.31.41,2.19,2.19,0,0,1-1.1-.27,2.48,2.48,0,0,1-.81-.77,3.66,3.66,0,0,1-.5-1.17,5.64,5.64,0,0,1-.18-1.47,6.06,6.06,0,0,1,.17-1.47,3.59,3.59,0,0,1,.48-1.14,2.41,2.41,0,0,1,.81-.75,2.29,2.29,0,0,1,1.12-.27,2,2,0,0,1,1.26.38,1.88,1.88,0,0,1,.7,1h.05v-1.16h1.05Zm-1.05-3.34a5.78,5.78,0,0,0-.11-1.13,3,3,0,0,0-.33-.91,1.81,1.81,0,0,0-.55-.61,1.44,1.44,0,0,0-1.53,0,1.82,1.82,0,0,0-.53.6,3,3,0,0,0-.32.91,6.72,6.72,0,0,0-.1,1.14,6.54,6.54,0,0,0,.1,1.11,3,3,0,0,0,.32.91,1.76,1.76,0,0,0,.53.61,1.46,1.46,0,0,0,1.54,0,2,2,0,0,0,.54-.6,3,3,0,0,0,.33-.9A5.78,5.78,0,0,0,147.5,113.93Z"/><path class="cls-2" d="M159.36,113.94a5.25,5.25,0,0,1-.2,1.48,3.52,3.52,0,0,1-.56,1.15,2.33,2.33,0,0,1-.9.75,2.6,2.6,0,0,1-1.19.26,2.57,2.57,0,0,1-1.19-.26,2.48,2.48,0,0,1-.9-.75,3.35,3.35,0,0,1-.57-1.15,5.25,5.25,0,0,1-.2-1.48,5.86,5.86,0,0,1,.19-1.5,3.57,3.57,0,0,1,.55-1.16,2.7,2.7,0,0,1,.9-.75,2.67,2.67,0,0,1,1.22-.26,2.6,2.6,0,0,1,1.19.26,2.52,2.52,0,0,1,.9.75,3.58,3.58,0,0,1,.56,1.16A5.44,5.44,0,0,1,159.36,113.94Zm-1.12,0a5.88,5.88,0,0,0-.11-1.14,3.07,3.07,0,0,0-.32-.9,1.74,1.74,0,0,0-.54-.6,1.28,1.28,0,0,0-.76-.22,1.35,1.35,0,0,0-.78.22,1.74,1.74,0,0,0-.54.6,3.39,3.39,0,0,0-.31.9,5.88,5.88,0,0,0-.11,1.14,5.6,5.6,0,0,0,.11,1.12,3.66,3.66,0,0,0,.31.9,1.58,1.58,0,0,0,.54.6,1.54,1.54,0,0,0,1.55,0,1.58,1.58,0,0,0,.54-.6,3.29,3.29,0,0,0,.31-.9A5.6,5.6,0,0,0,158.24,113.92Z"/><path class="cls-2" d="M163.9,117.36h-1.29l-2.19-6.87h1.15l1.7,5.9h0l1.62-5.9H166Z"/><path class="cls-2" d="M168.19,114.12a4.9,4.9,0,0,0,.11,1,3,3,0,0,0,.34.83,1.66,1.66,0,0,0,.57.55,1.69,1.69,0,0,0,1.76-.1,2.3,2.3,0,0,0,.57-.74l.82.41a2.74,2.74,0,0,1-.88,1,2.83,2.83,0,0,1-3.62-.55,4.18,4.18,0,0,1-.76-2.67,5.31,5.31,0,0,1,.19-1.48,3.87,3.87,0,0,1,.57-1.17,2.64,2.64,0,0,1,.91-.75,2.57,2.57,0,0,1,1.19-.27,2.53,2.53,0,0,1,1.22.26,2.29,2.29,0,0,1,.82.72,3,3,0,0,1,.45,1.07,6,6,0,0,1,.14,1.3v.5Zm3.31-.76a3.13,3.13,0,0,0-.38-1.67,1.29,1.29,0,0,0-1.19-.63,1.34,1.34,0,0,0-.81.24,2,2,0,0,0-.53.6,2.46,2.46,0,0,0-.3.75,3.28,3.28,0,0,0-.09.71Z"/><path class="cls-2" d="M176.43,110.68a1.71,1.71,0,0,1,1.09-.4h.2l0,.95-.12,0h-.14a1.21,1.21,0,0,0-.74.24,2.09,2.09,0,0,0-.54.6,3.13,3.13,0,0,0-.32.86,4.38,4.38,0,0,0-.1,1v3.5h-1.09v-5.14c0-.15,0-.31,0-.48s0-.33,0-.5,0-.31,0-.44,0-.24,0-.31h1.06c0,.17,0,.39.05.66s0,.54,0,.84h0A2.47,2.47,0,0,1,176.43,110.68Z"/><path class="cls-2" d="M182.21,117.36v-9.81h4.7v.86h-3.58v3.44h3.35v.83h-3.35v3.81h3.75v.87Z"/><path class="cls-2" d="M192.5,117.36l-1.63-2.88-1.62,2.88h-1.2l2.18-3.61-2-3.26h1.22l1.44,2.59,1.42-2.59h1.18l-2,3.24,2.21,3.63Z"/><path class="cls-2" d="M197.49,117.49a3.31,3.31,0,0,1-.55.05,1.37,1.37,0,0,1-1.21-.5,2.21,2.21,0,0,1-.36-1.33v-4.47H194.3v-.75h1.06v-1.9h1.07v1.9h1.45v.75h-1.45v4.31a1.51,1.51,0,0,0,.21.9.77.77,0,0,0,.65.29,1.15,1.15,0,0,0,.31,0,1.63,1.63,0,0,0,.28-.07l.05.73A2.94,2.94,0,0,1,197.49,117.49Z"/><path class="cls-2" d="M201.26,110.68a1.71,1.71,0,0,1,1.09-.4h.2l0,.95-.13,0h-.14a1.18,1.18,0,0,0-.73.24,2.09,2.09,0,0,0-.54.6,3.13,3.13,0,0,0-.32.86,4.4,4.4,0,0,0-.11,1v3.5h-1.08v-5.14c0-.15,0-.31,0-.48s0-.33,0-.5,0-.31,0-.44a2.28,2.28,0,0,0,0-.31h1.06c0,.17,0,.39,0,.66s0,.54,0,.84h0A2.54,2.54,0,0,1,201.26,110.68Z"/><path class="cls-2" d="M204.42,114.12a4.34,4.34,0,0,0,.11,1,3,3,0,0,0,.34.83,1.73,1.73,0,0,0,.56.55,1.52,1.52,0,0,0,.81.2,1.45,1.45,0,0,0,1-.3,2.14,2.14,0,0,0,.56-.74l.83.41a2.74,2.74,0,0,1-.88,1,2.83,2.83,0,0,1-3.62-.55,4.18,4.18,0,0,1-.76-2.67,5.31,5.31,0,0,1,.19-1.48,3.65,3.65,0,0,1,.57-1.17,2.64,2.64,0,0,1,.91-.75,2.57,2.57,0,0,1,1.19-.27,2.53,2.53,0,0,1,1.22.26,2.29,2.29,0,0,1,.82.72,3,3,0,0,1,.45,1.07,6,6,0,0,1,.14,1.3v.5Zm3.31-.76a3.23,3.23,0,0,0-.38-1.67,1.29,1.29,0,0,0-1.19-.63,1.34,1.34,0,0,0-.81.24,2,2,0,0,0-.53.6,2.46,2.46,0,0,0-.3.75,3.28,3.28,0,0,0-.09.71Z"/><path class="cls-2" d="M212.67,110.7a2,2,0,0,1,1.34-.43,2,2,0,0,1,.76.13,1.49,1.49,0,0,1,.54.35,1.46,1.46,0,0,1,.35.5,4.18,4.18,0,0,1,.19.6h0a2.66,2.66,0,0,1,.28-.59,2.17,2.17,0,0,1,.45-.51,2.14,2.14,0,0,1,.63-.35,2.52,2.52,0,0,1,1.85.1,1.81,1.81,0,0,1,.61.62,2.37,2.37,0,0,1,.3.86,6.08,6.08,0,0,1,.07,1v4.43H219v-4.43a4.82,4.82,0,0,0,0-.65,1.92,1.92,0,0,0-.17-.59,1.2,1.2,0,0,0-.39-.45,1.24,1.24,0,0,0-.68-.17,1.34,1.34,0,0,0-.72.19,1.46,1.46,0,0,0-.54.51,2.84,2.84,0,0,0-.33.75,3.17,3.17,0,0,0-.11.88v4h-1.09v-4.43c0-.21,0-.43,0-.65a2.18,2.18,0,0,0-.17-.61,1,1,0,0,0-.38-.43,1.17,1.17,0,0,0-.66-.17,1.34,1.34,0,0,0-.72.19,1.52,1.52,0,0,0-.53.51,2.57,2.57,0,0,0-.34.75,3.17,3.17,0,0,0-.12.88v4h-1.08v-5.14c0-.15,0-.31,0-.48s0-.33,0-.5,0-.31,0-.44a2.28,2.28,0,0,0,0-.31h1.07c0,.17,0,.39,0,.64s0,.48,0,.7h0A2.12,2.12,0,0,1,212.67,110.7Z"/><path class="cls-2" d="M223.16,114.12a4.9,4.9,0,0,0,.11,1,3,3,0,0,0,.34.83,1.66,1.66,0,0,0,.57.55,1.69,1.69,0,0,0,1.76-.1,2.3,2.3,0,0,0,.57-.74l.82.41a2.74,2.74,0,0,1-.88,1,2.83,2.83,0,0,1-3.62-.55,4.18,4.18,0,0,1-.76-2.67,5.31,5.31,0,0,1,.19-1.48,3.87,3.87,0,0,1,.57-1.17,2.64,2.64,0,0,1,.91-.75,2.57,2.57,0,0,1,1.19-.27,2.53,2.53,0,0,1,1.22.26,2.29,2.29,0,0,1,.82.72,3,3,0,0,1,.45,1.07,6,6,0,0,1,.14,1.3v.5Zm3.31-.76a3.13,3.13,0,0,0-.38-1.67,1.29,1.29,0,0,0-1.19-.63,1.34,1.34,0,0,0-.81.24,2,2,0,0,0-.53.6,2.46,2.46,0,0,0-.3.75,3.28,3.28,0,0,0-.09.71Z"/><path class="cls-2" d="M228.9,114.11v-.78h2.47v.78Z"/><path class="cls-2" d="M238.2,114.85A2.67,2.67,0,0,1,238,116a2.46,2.46,0,0,1-.63.86,2.7,2.7,0,0,1-1,.54,3.44,3.44,0,0,1-1.16.19,4.21,4.21,0,0,1-1.64-.32,3.18,3.18,0,0,1-1.21-.85l.71-.67a2.48,2.48,0,0,0,.95.7,2.91,2.91,0,0,0,1.18.25,1.94,1.94,0,0,0,1.32-.47,1.68,1.68,0,0,0,.54-1.34,1.58,1.58,0,0,0-.17-.74,1.82,1.82,0,0,0-.44-.57,3.8,3.8,0,0,0-.64-.44,6.53,6.53,0,0,0-.75-.36,7.52,7.52,0,0,1-.9-.44,3.34,3.34,0,0,1-.75-.56,2.38,2.38,0,0,1-.72-1.77,2.64,2.64,0,0,1,.25-1.19,2.37,2.37,0,0,1,.66-.84,2.82,2.82,0,0,1,.95-.51,3.68,3.68,0,0,1,1.11-.16,4.19,4.19,0,0,1,1.42.22,2.57,2.57,0,0,1,1.07.72l-.71.68a1.9,1.9,0,0,0-.78-.58,2.74,2.74,0,0,0-1-.17,2.24,2.24,0,0,0-.68.1,1.72,1.72,0,0,0-.61.33,1.63,1.63,0,0,0-.42.57,1.86,1.86,0,0,0-.17.81,1.59,1.59,0,0,0,.15.72,1.65,1.65,0,0,0,.4.54,2.67,2.67,0,0,0,.6.42,7.5,7.5,0,0,0,.7.33,8.53,8.53,0,0,1,.91.45,3.78,3.78,0,0,1,.82.58,2.74,2.74,0,0,1,.58.77A2.44,2.44,0,0,1,238.2,114.85Z"/><path class="cls-2" d="M242.56,117.58a2.64,2.64,0,0,1-1.22-.27,2.56,2.56,0,0,1-.89-.74,3.58,3.58,0,0,1-.53-1.15,5.8,5.8,0,0,1-.18-1.49,5.69,5.69,0,0,1,.18-1.49,3.36,3.36,0,0,1,.54-1.16,2.57,2.57,0,0,1,.89-.75,2.64,2.64,0,0,1,1.22-.26,2.71,2.71,0,0,1,1.08.19,2.36,2.36,0,0,1,.71.46l-.58.66a1.45,1.45,0,0,0-.5-.37,1.63,1.63,0,0,0-.69-.14,1.32,1.32,0,0,0-.77.22,1.69,1.69,0,0,0-.53.59,3,3,0,0,0-.32.9,5.16,5.16,0,0,0-.11,1.15,5,5,0,0,0,.11,1.12,2.69,2.69,0,0,0,.32.88,1.57,1.57,0,0,0,.55.59,1.46,1.46,0,0,0,.8.2,1.65,1.65,0,0,0,.72-.14,1.58,1.58,0,0,0,.52-.41l.49.71A2.35,2.35,0,0,1,242.56,117.58Z"/><path class="cls-2" d="M249.21,117.36a1.7,1.7,0,0,1,0-.27c0-.12,0-.23,0-.36v-.66h0a1.85,1.85,0,0,1-2,1.47,2.07,2.07,0,0,1-.69-.11,1.66,1.66,0,0,1-.63-.36,1.9,1.9,0,0,1-.46-.63,2.48,2.48,0,0,1,.13-2.13,2.4,2.4,0,0,1,.8-.72,3.19,3.19,0,0,1,1-.35,6.94,6.94,0,0,1,1.08-.09h.65v-.36a1.89,1.89,0,0,0-.4-1.32,1.42,1.42,0,0,0-1.07-.41,1.94,1.94,0,0,0-.86.2,2.54,2.54,0,0,0-.68.53l-.57-.57a2.41,2.41,0,0,1,1-.7,3.1,3.1,0,0,1,1.22-.25,2.16,2.16,0,0,1,1.83.7,3.38,3.38,0,0,1,.54,2.07v2.85c0,.1,0,.21,0,.35s0,.28,0,.42,0,.28,0,.4a1.68,1.68,0,0,0,0,.3Zm-.14-3.49h-.66a5.35,5.35,0,0,0-.79.06,1.93,1.93,0,0,0-.7.24,1.35,1.35,0,0,0-.5.48,1.42,1.42,0,0,0-.2.79,1.31,1.31,0,0,0,.38,1,1.25,1.25,0,0,0,.82.31,1.29,1.29,0,0,0,.79-.23,1.85,1.85,0,0,0,.51-.6,2.83,2.83,0,0,0,.27-.79,4,4,0,0,0,.08-.83Z"/><path class="cls-2" d="M252.44,117.36V106.89h1.09v10.47Z"/><path class="cls-2" d="M256.66,114.12a4.32,4.32,0,0,0,.12,1,3,3,0,0,0,.34.83,1.64,1.64,0,0,0,.56.55,1.52,1.52,0,0,0,.81.2,1.49,1.49,0,0,0,1-.3,2.14,2.14,0,0,0,.56-.74l.83.41a2.77,2.77,0,0,1-.89,1,2.48,2.48,0,0,1-1.49.42,2.55,2.55,0,0,1-2.13-1,4.24,4.24,0,0,1-.76-2.67,5.3,5.3,0,0,1,.2-1.48,3.45,3.45,0,0,1,.57-1.17,2.7,2.7,0,0,1,.9-.75,2.65,2.65,0,0,1,1.2-.27,2.53,2.53,0,0,1,1.22.26,2.29,2.29,0,0,1,.82.72,3.45,3.45,0,0,1,.45,1.07,6,6,0,0,1,.14,1.3v.5Zm3.32-.76a3.23,3.23,0,0,0-.38-1.67,1.31,1.31,0,0,0-1.2-.63,1.29,1.29,0,0,0-.8.24,1.91,1.91,0,0,0-.53.6,2.46,2.46,0,0,0-.3.75,3.28,3.28,0,0,0-.09.71Z"/><path class="cls-2" d="M272.91,112.47a7.15,7.15,0,0,1-.29,2.12,4.21,4.21,0,0,1-.86,1.53,3.63,3.63,0,0,1-1.35.93,4.61,4.61,0,0,1-1.74.31h-2.51v-9.81h2.53a4.61,4.61,0,0,1,1.74.31,3.51,3.51,0,0,1,1.34.94,4.39,4.39,0,0,1,.85,1.54A7.27,7.27,0,0,1,272.91,112.47Zm-1.14,0a6.11,6.11,0,0,0-.24-1.81,3.37,3.37,0,0,0-.66-1.28,2.83,2.83,0,0,0-1-.75,3.14,3.14,0,0,0-1.23-.25H267.3v8.15h1.36a3,3,0,0,0,1.23-.25,2.83,2.83,0,0,0,1-.75,3.33,3.33,0,0,0,.66-1.27A6,6,0,0,0,271.77,112.47Z"/><path class="cls-2" d="M278.46,117.36a1.7,1.7,0,0,1,0-.27c0-.12,0-.23,0-.36v-.66h0a1.85,1.85,0,0,1-2,1.47,2.07,2.07,0,0,1-.69-.11,1.66,1.66,0,0,1-.63-.36,1.9,1.9,0,0,1-.46-.63,2.48,2.48,0,0,1,.13-2.13,2.4,2.4,0,0,1,.8-.72,3.19,3.19,0,0,1,1-.35,6.94,6.94,0,0,1,1.08-.09h.65v-.36a1.89,1.89,0,0,0-.4-1.32,1.42,1.42,0,0,0-1.07-.41,1.94,1.94,0,0,0-.86.2,2.54,2.54,0,0,0-.68.53l-.57-.57a2.41,2.41,0,0,1,1-.7,3.1,3.1,0,0,1,1.22-.25,2.16,2.16,0,0,1,1.83.7,3.38,3.38,0,0,1,.54,2.07v2.85c0,.1,0,.21,0,.35s0,.28,0,.42,0,.28,0,.4a1.68,1.68,0,0,0,0,.3Zm-.14-3.49h-.66a5.35,5.35,0,0,0-.79.06,1.93,1.93,0,0,0-.7.24,1.35,1.35,0,0,0-.5.48,1.42,1.42,0,0,0-.2.79,1.31,1.31,0,0,0,.38,1,1.25,1.25,0,0,0,.82.31,1.29,1.29,0,0,0,.79-.23,1.85,1.85,0,0,0,.51-.6,2.83,2.83,0,0,0,.27-.79,4,4,0,0,0,.08-.83Z"/><path class="cls-2" d="M283.9,117.49a3.29,3.29,0,0,1-.54.05,1.38,1.38,0,0,1-1.22-.5,2.28,2.28,0,0,1-.35-1.33v-4.47h-1.07v-.75h1v-1.9h1.07v1.9h1.46v.75h-1.46v4.31a1.5,1.5,0,0,0,.22.9.75.75,0,0,0,.64.29,1.27,1.27,0,0,0,.32,0,1.63,1.63,0,0,0,.28-.07l.05.73A3.1,3.1,0,0,1,283.9,117.49Z"/><path class="cls-2" d="M289.25,117.36a1.7,1.7,0,0,1,0-.27c0-.12,0-.23,0-.36v-.66h0a1.85,1.85,0,0,1-2,1.47,2.07,2.07,0,0,1-.69-.11,1.66,1.66,0,0,1-.63-.36,1.9,1.9,0,0,1-.46-.63,2.48,2.48,0,0,1,.13-2.13,2.4,2.4,0,0,1,.8-.72,3.19,3.19,0,0,1,1-.35,6.94,6.94,0,0,1,1.08-.09h.65v-.36a1.89,1.89,0,0,0-.4-1.32,1.42,1.42,0,0,0-1.07-.41,1.91,1.91,0,0,0-.86.2,2.54,2.54,0,0,0-.68.53l-.57-.57a2.41,2.41,0,0,1,1-.7,3.1,3.1,0,0,1,1.22-.25,2.16,2.16,0,0,1,1.83.7,3.38,3.38,0,0,1,.54,2.07v2.85c0,.1,0,.21,0,.35s0,.28,0,.42,0,.28,0,.4a1.68,1.68,0,0,0,0,.3Zm-.14-3.49h-.66a5.35,5.35,0,0,0-.79.06,1.93,1.93,0,0,0-.7.24,1.35,1.35,0,0,0-.5.48,1.42,1.42,0,0,0-.2.79,1.31,1.31,0,0,0,.38,1,1.25,1.25,0,0,0,.82.31,1.29,1.29,0,0,0,.79-.23,1.85,1.85,0,0,0,.51-.6,2.83,2.83,0,0,0,.27-.79,4,4,0,0,0,.08-.83Z"/><path class="cls-3" d="M44.31,50.33v6.16H30.7C23.92,56.49,21,59.88,21,68s2.92,11.42,9.75,11.42H44.31v6.15H30.7c-10.27,0-15.9-5.79-15.9-17.57s5.68-17.63,15.9-17.63Z"/><path class="cls-3" d="M68.25,50.33c7.93,0,11.32,4.91,11.32,10.54,0,4.38-2.09,9.07-7.46,10.58L80.3,85.53H73.47l-8-13.61H56.26a.78.78,0,0,0-.89.89V85.53H49.22V71.61c0-4,1.67-5.58,5.53-5.58H68.46a4.56,4.56,0,0,0,4.9-4.9c0-2.5-1.51-4.64-4.9-4.64H49.17V50.33Z"/><path class="cls-3" d="M170.28,50.33c10.27,0,15.86,5.74,15.86,17.63s-5.53,17.57-15.86,17.57H157.87c-2,0-2.92-.94-2.92-2.87V53.2c0-1.93.94-2.87,2.92-2.87Zm-9.17,28.42c0,.47.2.63.67.63h8.5c6.83,0,9.7-3.39,9.7-11.47s-2.87-11.42-9.7-11.42h-8.5c-.47,0-.67.15-.67.62Z"/><path class="cls-3" d="M194,85.53h-6.78l12.36-31.28c1.3-3.29,3.7-4.54,7.4-4.54s6,1.25,7.3,4.54l11.89,31.28h-6.83L208.69,57.22A1.67,1.67,0,0,0,207,56a1.76,1.76,0,0,0-1.77,1.2Z"/><path class="cls-3" d="M251.12,50.33v6.16H240.85v29h-6.21v-29H224.37V50.33Z"/><path class="cls-3" d="M254.48,85.53H247.7l12.36-31.28c1.31-3.29,3.7-4.54,7.41-4.54s6,1.25,7.3,4.54l11.88,31.28h-6.83L269.13,57.22a1.66,1.66,0,0,0-1.72-1.2,1.77,1.77,0,0,0-1.77,1.2Z"/><path class="cls-3" d="M92.19,79.38V70.67h17.29V65.09H92.19v-8.6h17.55V50.33H92.12c-.42,0-.82,0-1.21.05h-5.2V85.53H109.8V79.38Z"/><path class="cls-4" d="M309.47,68H265.74a1.5,1.5,0,1,1,0-3h43.73a1.5,1.5,0,0,1,0,3Z"/><path class="cls-5" d="M309.47,75.17H265.74a1.51,1.51,0,1,1,0-3h43.73a1.51,1.51,0,0,1,0,3Z"/><path class="cls-6" d="M309.47,82.83H265.74a1.5,1.5,0,1,1,0-3h43.73a1.5,1.5,0,0,1,0,3Z"/><path class="cls-4" d="M228,68H206.35a1.5,1.5,0,0,1,0-3H228a1.5,1.5,0,0,1,0,3Z"/><path class="cls-5" d="M228,75.17H206.35a1.51,1.51,0,0,1,0-3H228a1.51,1.51,0,0,1,0,3Z"/><path class="cls-6" d="M228,82.83H206.35a1.5,1.5,0,0,1,0-3H228a1.5,1.5,0,0,1,0,3Z"/><path class="cls-7" d="M122.3,50.35l10.8,13,11.31-13H152L137,67.66l15.18,17.89h-7.51l-11.68-14-12,14h-7.62L129.08,67.2,114.79,50.35Z"/></g></g></svg>